<svg xmlns="http://www.w3.org/2000/svg" width="250" height="54"><g fill="none" fill-rule="evenodd"><rect width="249" height="53" x=".5" y=".5" fill="#FFF" stroke="#FF6154" rx="10"/><text fill="#FF6154" font-family="Helvetica-Bold, Helvetica" font-size="9" font-weight="bold"><tspan x="53" y="20">PRODUCT HUNT</tspan></text><text fill="#FF6154" font-family="Helvetica-Bold, Helvetica" font-size="16" font-weight="bold"><tspan x="52" y="40">#3 Product of the Day</tspan></text><g transform="translate(17 13)"><path fill="#DE7818" fill-rule="nonzero" d="M4.33 16.364.328 24.9c-.126.258.007.42.427.34l3.258-.708a.244.244 0 0 1 .317.17l1.467 3.007c.14.324.302.39.428.133l4.26-8.934-6.155-2.544zm12.34 0 4.002 8.536c.133.258-.007.42-.427.34l-3.258-.708a.246.246 0 0 0-.317.17l-1.467 3.007c-.14.324-.295.39-.428.133l-4.26-8.934 6.155-2.544z"/><path fill="#B35454" d="M9.298 21.392c0 .007-.014 0-.029 0a10.44 10.44 0 0 1-5.97-2.742c-.008-.008-.03-.015-.023-.023l.184-.39c.008-.015.022.022.03.03 1.577 1.466 3.767 2.388 6.007 2.66.008 0 .023 0 .023.008l-.222.457z"/><circle cx="10.5" cy="10.489" r="10.489" fill="#A54E24"/><circle cx="10.5" cy="10.489" r="9.045" fill="#A76236"/><circle cx="10.75" cy="10.75" r="8.75" fill="#BD6E3C"/><path fill="#FFC07A" d="M9.35 11.404h1.037c.82 0 1.318.398 1.318 1.048 0 .633-.527 1.067-1.289 1.067-.814 0-1.336-.399-1.365-1.043H7c.076 1.658 1.406 2.736 3.38 2.736 2.07 0 3.51-1.066 3.51-2.596 0-1.09-.744-1.857-1.91-1.98v-.111c.95-.176 1.6-.944 1.6-1.916 0-1.366-1.289-2.309-3.164-2.309-1.963 0-3.228 1.055-3.258 2.707H9.11c.024-.662.522-1.102 1.26-1.102.75 0 1.213.381 1.213.997 0 .615-.475 1.02-1.195 1.02H9.35v1.482z"/><path fill="#FFF" fill-opacity=".2" d="M12.97 3.089a7.604 7.604 0 0 1 .353 14.698c2.035-1.555 3.384-4.209 3.384-7.224 0-3.184-1.504-5.963-3.738-7.474h.001z" opacity=".618"/><path fill="#B35454" d="M11.702 21.392c.007.007.022 0 .029 0 2.293-.288 4.4-1.21 5.986-2.728.007-.007.029-.014.022-.022l-.185-.39c-.007-.015-.022.022-.03.029-1.577 1.467-3.773 2.374-6.021 2.646-.008 0-.023 0-.023.008l.222.457z"/></g></g></svg>